<?xml version="1.0" encoding="utf-8"?><svg xmlns="http://www.w3.org/2000/svg" xmlns:xlink="http://www.w3.org/1999/xlink"><symbol viewBox="0 0 24 24" id="archive" xmlns="http://www.w3.org/2000/svg"><path d="M20.5 7v6c0 3.771 0 5.657-1.172 6.828C18.157 21 16.271 21 12.5 21h-1c-3.771 0-5.657 0-6.828-1.172C3.5 18.657 3.5 16.771 3.5 13V7M2 5c0-.943 0-1.414.293-1.707C2.586 3 3.057 3 4 3h16c.943 0 1.414 0 1.707.293C22 3.586 22 4.057 22 5c0 .943 0 1.414-.293 1.707C21.414 7 20.943 7 20 7H4c-.943 0-1.414 0-1.707-.293C2 6.414 2 5.943 2 5Z"/><path d="m9.5 13.4 1.429 1.6 3.571-4"/></symbol><symbol viewBox="0 0 24 24" id="arrow" xmlns="http://www.w3.org/2000/svg"><path d="m12 19.5 5-5m-5 5-5-5m5 5v-10c0-1.667-1-5-5-5"/></symbol><symbol viewBox="0 0 24 24" id="cloud-fog-svgrepo-com" xmlns="http://www.w3.org/2000/svg"><path d="M3 18h4m3 0h11M5 21h7m4 0h3M8.8 15C6.149 15 4 12.947 4 10.414 4 8.314 5.6 6.375 8 6a5.057 5.057 0 0 1 4.613-3c2.662 0 4.837 1.99 4.987 4.5 1.413.596 2.4 2.057 2.4 3.64 0 2.132-1.79 3.86-4 3.86H8.8Z"/></symbol><symbol viewBox="0 0 24 24" id="map" xmlns="http://www.w3.org/2000/svg"><path d="M4 10.143C4 5.646 7.582 2 12 2s8 3.646 8 8.143c0 4.462-2.553 9.67-6.537 11.531a3.45 3.45 0 0 1-2.926 0C6.553 19.812 4 14.605 4 10.144Z"/><path d="M14.125 12.118 15.5 13.5m-1.375-1.382a3 3 0 1 0-4.25-4.236 3 3 0 0 0 4.25 4.236Z"/></symbol></svg>