<svg width="1024" height="1024" viewBox="0 0 1024 1024" fill="none" xmlns="http://www.w3.org/2000/svg">
<g clip-path="url(#clip0_3_10)">
<circle cx="512" cy="512" r="512" fill="#121567"/>
<path d="M775.909 353.871L618.892 365.236C616.208 349.452 610.437 335.246 601.58 322.619C592.723 309.676 581.047 299.417 566.553 291.84C552.328 283.948 535.284 280.003 515.422 280.003C488.85 280.003 466.438 286.632 448.187 299.89C429.935 312.833 420.81 330.195 420.81 351.977C420.81 369.34 426.714 384.019 438.524 396.015C450.334 408.01 470.599 417.639 499.318 424.899L611.243 451.416C671.365 465.937 716.189 489.298 745.713 521.497C775.238 553.696 790 595.997 790 648.4C790 696.067 778.056 737.895 754.168 773.882C730.548 809.869 698.071 837.965 656.737 858.168C615.671 878.056 568.298 888 514.617 888C432.754 888 367.531 867.954 318.95 827.863C270.637 787.456 242.321 732.528 234 663.079L402.692 652.661C407.792 682.02 420.139 704.433 439.732 719.901C459.326 735.054 484.421 742.63 515.02 742.63C545.081 742.63 569.237 735.843 587.489 722.269C606.009 708.379 615.403 690.543 615.671 668.761C615.403 650.452 608.827 635.457 595.943 623.777C583.06 611.781 563.198 602.626 536.358 596.313L429.264 571.216C368.873 557.011 323.916 532.388 294.391 497.347C265.135 462.307 250.507 417.638 250.507 363.342C250.507 316.621 261.243 276.372 282.715 242.595C304.456 208.817 334.92 182.773 374.107 164.464C413.563 146.155 459.728 137 512.604 137C590.71 137 652.174 156.414 696.998 195.243C742.09 234.071 768.393 286.947 775.909 353.871Z" fill="white"/>
</g>
<defs>
<clipPath id="clip0_3_10">
<rect width="1024" height="1024" fill="white"/>
</clipPath>
</defs>
</svg>
